<svg xmlns="http://www.w3.org/2000/svg" xml:space="preserve" style="fill-rule:evenodd;clip-rule:evenodd;stroke-miterlimit:10" viewBox="0 0 1230 1230"><path d="M260.749 531.235C229.627 542.46 88.386 799.33 88.386 852.94s203.244 267.071 267.545 267.071c64.3 0 313.46-111.039 334.528-142.897 21.066-31.859 16.614-97.905 35.19-111.505 18.578-13.647 128.555-16.162 151.919-31.858 23.413-15.697 3.448-133.769 33.324-144.249s185.29 11.412 210.522-4.098 28.584-525.013 0-557.01c-28.584-31.953-542.081-15.837-569.564 0-27.483 15.835-10.677 182.58-27.29 202.747-16.614 20.168-147.562 29.716-173.321 56.591-25.711 26.875 12.353 116.255-10.198 130.927s-49.22 1.397-80.34 12.576z" style="fill:#fff;fill-rule:nonzero;stroke:#ccc;stroke-width:4.72px"/><path d="M574.066 648.05c26.573 25.803 60.136 232.044 43.09 264.555-17.044 32.557-208.271 127.341-245.33 121.612-37.057-5.729-188.832-153.33-194.721-189.428s91.544-222.078 125.01-238.659c33.468-16.58 245.426 16.07 271.95 41.92" style="fill:#0091d3;fill-rule:nonzero"/><path d="M574.066 648.05c26.573 25.803 60.136 232.044 43.09 264.555-17.044 32.557-208.271 127.341-245.33 121.612-37.057-5.729-188.832-153.33-194.721-189.428s91.544-222.078 125.01-238.659c33.468-16.58 245.426 16.07 271.95 41.92m-16.9 16.487c3.782 3.68 6.559 12.95 10.39 24.826 7.804 24.266 15.225 58.034 20.779 92.128 5.554 34.048 9.24 68.422 9.528 93.853.143 12.436.43 22.124-2.011 26.735s-10.63 10.06-21.067 17.28c-21.306 14.764-52.044 32.044-83.644 47.694s-64.061 29.716-88.814 37.82c-12.162 3.96-21.498 7.22-26.765 6.381-5.266-.79-13.118-6.707-23.412-14.112-21.02-15.138-47.4-38.24-72.441-62.646-25.088-24.406-48.836-50.07-64.396-70.517-7.613-10.014-13.693-17.653-14.507-22.776s2.489-14.206 6.559-26.037c8.33-24.126 22.79-55.659 38.877-86.399s33.85-60.643 49.028-81.37c7.42-10.154 13.023-18.118 17.763-20.494 4.74-2.329 14.699-2.096 27.482-1.956 26.142.233 61.476 3.866 96.476 9.27 35.047 5.402 69.759 12.575 94.703 20.213 12.21 3.726 21.737 6.474 25.52 10.107z" style="fill:#0091d3;fill-rule:nonzero"/><path d="M1027.955 175.994H622.519c-17.523 0-31.695 13.833-31.695 30.834v61.714c0 17.047 14.219 30.834 31.695 30.834h277.696c23.987-.093 33.754 10.433 33.706 32.743v269.074c0 16.814 14.029 30.508 31.36 30.508h62.674c17.284 0 31.313-13.647 31.313-30.508v-394.69c0-16.815-14.03-30.462-31.313-30.462z" style="fill:#a2c617;fill-rule:nonzero"/><path d="M796.27 414.607h-348.7c-15.033 0-27.29 11.364-27.29 25.337v50.676c0 13.973 12.209 25.338 27.29 25.338h238.867c20.636-.047 29.014 8.57 28.967 26.874v220.914c0 13.833 12.065 25.011 26.955 25.011h53.912c14.89 0 26.955-11.225 26.955-25.01V439.617c0-13.833-12.065-25.01-26.955-25.01" style="fill:#a2c617;fill-rule:nonzero"/></svg>